<svg width="24" height="25" viewBox="0 0 24 25" fill="none" xmlns="http://www.w3.org/2000/svg">
<path d="M20.0524 3.80444H3.94765C3.70178 3.82105 3.47027 3.92622 3.29602 4.10047C3.12177 4.27472 3.0166 4.50623 3 4.75209V20.8568C3.00139 21.1077 3.10168 21.3479 3.2791 21.5253C3.45651 21.7028 3.69674 21.8031 3.94765 21.8044H12.5686V14.794H10.2942V12.1416H12.6628V10.1521C12.6118 9.67496 12.6666 9.19244 12.8233 8.73892C12.9801 8.28539 13.2349 7.87201 13.5697 7.52824C13.9045 7.18446 14.311 6.91874 14.7602 6.75002C15.2094 6.58129 15.6903 6.51371 16.1686 6.55209C17.1162 6.55209 17.9686 6.64633 18.2524 6.64633V9.11021H16.8314C15.6942 9.11021 15.5047 9.6788 15.5047 10.4369V12.1416H18.1571L17.778 14.8893H15.4105V21.8044H20.0524C20.3033 21.8031 20.5435 21.7028 20.7209 21.5253C20.8983 21.3479 20.9986 21.1077 21 20.8568V4.75209C20.9834 4.50623 20.8782 4.27472 20.704 4.10047C20.5297 3.92622 20.2982 3.82105 20.0524 3.80444V3.80444Z" fill="#2A2A2F"/>
</svg>
