<svg width="22" height="22" viewBox="0 0 22 22" fill="none" xmlns="http://www.w3.org/2000/svg">
<path fill-rule="evenodd" clip-rule="evenodd" d="M0.25 6.25899C0.25 2.84478 3.04033 0.0544434 6.45455 0.0544434H15.5455C18.9597 0.0544434 21.75 2.84478 21.75 6.25899V15.3499C21.75 18.7641 18.9597 21.5544 15.5455 21.5544H6.45455C3.04033 21.5544 0.25 18.7641 0.25 15.3499V6.25899ZM6.45455 1.55444C3.86876 1.55444 1.75 3.6732 1.75 6.25899V15.3499C1.75 17.9357 3.86876 20.0544 6.45455 20.0544H15.5455C18.1312 20.0544 20.25 17.9357 20.25 15.3499V6.25899C20.25 3.6732 18.1312 1.55444 15.5455 1.55444H6.45455ZM11 14.3044C12.933 14.3044 14.5 12.7374 14.5 10.8044C14.5 8.87145 12.933 7.30444 11 7.30444C9.067 7.30444 7.5 8.87145 7.5 10.8044C7.5 12.7374 9.067 14.3044 11 14.3044ZM11 15.8044C13.7614 15.8044 16 13.5659 16 10.8044C16 8.04302 13.7614 5.80444 11 5.80444C8.23858 5.80444 6 8.04302 6 10.8044C6 13.5659 8.23858 15.8044 11 15.8044ZM16 5.80444C16.5523 5.80444 17 5.35673 17 4.80444C17 4.25216 16.5523 3.80444 16 3.80444C15.4477 3.80444 15 4.25216 15 4.80444C15 5.35673 15.4477 5.80444 16 5.80444Z" fill="#2A2A2F"/>
</svg>
