<svg width="64" height="63" viewBox="0 0 64 63" fill="none" xmlns="http://www.w3.org/2000/svg">
<g filter="url(#filter0_ddd_1_227)">
<path d="M46.9999 39.5922C50.6397 41.4207 53.7602 44.355 56.0379 48.024C56.4889 48.7508 56.7144 49.114 56.7924 49.617C56.9509 50.6395 56.2519 51.8963 55.2997 52.301C54.8312 52.5 54.3039 52.5 53.2499 52.5M41.9999 28.8305C45.7042 26.9897 48.2499 23.1672 48.2499 18.75C48.2499 14.3328 45.7042 10.5103 41.9999 8.6694M36.9999 18.75C36.9999 24.9632 31.9629 30 25.7498 30C19.5366 30 14.4998 24.9632 14.4998 18.75C14.4998 12.5368 19.5366 7.5 25.7498 7.5C31.9629 7.5 36.9999 12.5368 36.9999 18.75ZM8.39792 47.3457C12.3837 41.3615 18.6733 37.5 25.7498 37.5C32.8264 37.5 39.1159 41.3615 43.1017 47.3457C43.9749 48.657 44.4114 49.3125 44.3612 50.1498C44.3222 50.8018 43.8947 51.6 43.3737 51.994C42.7047 52.5 41.7844 52.5 39.9439 52.5H11.5557C9.71527 52.5 8.79504 52.5 8.12594 51.994C7.60497 51.6 7.17757 50.8018 7.13842 50.1498C7.08817 49.3125 7.52474 48.657 8.39792 47.3457Z" stroke="#72613D" stroke-width="5" stroke-linecap="round" stroke-linejoin="round"/>
</g>
<defs>
<filter id="filter0_ddd_1_227" x="-2" y="0" width="68" height="68" filterUnits="userSpaceOnUse" color-interpolation-filters="sRGB">
<feFlood flood-opacity="0" result="BackgroundImageFix"/>
<feColorMatrix in="SourceAlpha" type="matrix" values="0 0 0 0 0 0 0 0 0 0 0 0 0 0 0 0 0 0 127 0" result="hardAlpha"/>
<feOffset dy="4"/>
<feGaussianBlur stdDeviation="2"/>
<feComposite in2="hardAlpha" operator="out"/>
<feColorMatrix type="matrix" values="0 0 0 0 0 0 0 0 0 0 0 0 0 0 0 0 0 0 0.25 0"/>
<feBlend mode="normal" in2="BackgroundImageFix" result="effect1_dropShadow_1_227"/>
<feColorMatrix in="SourceAlpha" type="matrix" values="0 0 0 0 0 0 0 0 0 0 0 0 0 0 0 0 0 0 127 0" result="hardAlpha"/>
<feOffset dy="4"/>
<feGaussianBlur stdDeviation="2"/>
<feComposite in2="hardAlpha" operator="out"/>
<feColorMatrix type="matrix" values="0 0 0 0 0 0 0 0 0 0 0 0 0 0 0 0 0 0 0.25 0"/>
<feBlend mode="normal" in2="effect1_dropShadow_1_227" result="effect2_dropShadow_1_227"/>
<feColorMatrix in="SourceAlpha" type="matrix" values="0 0 0 0 0 0 0 0 0 0 0 0 0 0 0 0 0 0 127 0" result="hardAlpha"/>
<feOffset dy="4"/>
<feGaussianBlur stdDeviation="2"/>
<feComposite in2="hardAlpha" operator="out"/>
<feColorMatrix type="matrix" values="0 0 0 0 0 0 0 0 0 0 0 0 0 0 0 0 0 0 0.25 0"/>
<feBlend mode="normal" in2="effect2_dropShadow_1_227" result="effect3_dropShadow_1_227"/>
<feBlend mode="normal" in="SourceGraphic" in2="effect3_dropShadow_1_227" result="shape"/>
</filter>
</defs>
</svg>
