<svg width="21" height="18" viewBox="0 0 21 18" fill="none" xmlns="http://www.w3.org/2000/svg">
<path d="M21 2.81706C20.7129 3.24615 20.3882 3.64628 20.0259 4.01748C19.6636 4.38867 19.2705 4.72752 18.8467 5.03401C18.8535 5.12936 18.8586 5.22301 18.8621 5.31496C18.8655 5.4069 18.8672 5.50055 18.8672 5.5959C18.8672 6.45408 18.7749 7.30203 18.5903 8.13977C18.4058 8.97751 18.1392 9.78801 17.7905 10.5713C17.2847 11.7087 16.6523 12.7252 15.8936 13.6208C15.1348 14.5165 14.2751 15.2742 13.3147 15.894C12.3543 16.5138 11.3066 16.9871 10.1719 17.314C9.03711 17.641 7.84766 17.8044 6.60351 17.8044C5.42773 17.8044 4.281 17.6427 3.16333 17.3192C2.04565 16.9956 0.991207 16.5138 0 15.8735C0.33496 15.9144 0.676757 15.9348 1.02539 15.9348C2.00293 15.9348 2.94799 15.7782 3.86059 15.4649C4.77319 15.1516 5.6123 14.6953 6.37792 14.0959C5.91992 14.0891 5.479 14.0125 5.05517 13.866C4.63134 13.7196 4.2434 13.5153 3.89135 13.2531C3.5393 12.9908 3.23168 12.6792 2.9685 12.3183C2.70531 11.9573 2.50194 11.5588 2.35839 11.1229C2.49511 11.1434 2.63012 11.1604 2.76342 11.174C2.89672 11.1877 3.03173 11.1945 3.16845 11.1945C3.55126 11.1945 3.92723 11.1434 4.29638 11.0412C3.79052 10.9391 3.32739 10.7586 2.90698 10.4998C2.48657 10.2409 2.12255 9.92593 1.81493 9.55474C1.50732 9.18355 1.26806 8.76468 1.09716 8.29813C0.926263 7.83158 0.840814 7.3429 0.840814 6.83208V6.781C1.44238 7.12155 2.09521 7.30204 2.79931 7.32247C2.49853 7.11814 2.23022 6.88487 1.99438 6.62265C1.75854 6.36043 1.55859 6.07608 1.39453 5.76959C1.23046 5.4631 1.104 5.13958 1.01513 4.79904C0.926264 4.45849 0.88183 4.10773 0.88183 3.74675C0.88183 3.36534 0.929681 2.99245 1.02538 2.62807C1.12109 2.26368 1.26806 1.91803 1.4663 1.5911C2.01318 2.26538 2.62158 2.86985 3.2915 3.40451C3.96142 3.93916 4.67407 4.39719 5.42944 4.7786C6.18481 5.16001 6.97607 5.46139 7.80321 5.68275C8.63036 5.9041 9.47802 6.03521 10.3462 6.07608C10.3052 5.91943 10.2761 5.75767 10.259 5.5908C10.2419 5.42393 10.2334 5.25877 10.2334 5.09531C10.2334 4.50276 10.3462 3.94597 10.5718 3.42494C10.7974 2.9039 11.105 2.44927 11.4946 2.06105C11.8843 1.67283 12.3406 1.36634 12.8635 1.14158C13.3865 0.916823 13.9453 0.804443 14.54 0.804443C15.1416 0.804443 15.7141 0.921931 16.2576 1.15691C16.801 1.39188 17.2778 1.72732 17.688 2.16322C18.1733 2.06786 18.6433 1.93335 19.0979 1.75967C19.5525 1.58599 19.9917 1.37315 20.4155 1.12115C20.2583 1.61835 20.0173 2.07127 19.6926 2.47992C19.3679 2.88857 18.98 3.22572 18.5288 3.49134C19.3901 3.38918 20.2139 3.16442 21 2.81706L21 2.81706Z" fill="#2A2A2F"/>
</svg>
